<svg width="33" height="30" viewBox="0 0 33 30" fill="none" xmlns="http://www.w3.org/2000/svg">
<path d="M23.3635 17.2684C23.1745 17.245 22.9797 17.2215 22.7906 17.1923C22.9854 17.2157 23.1745 17.245 23.3635 17.2684ZM16.5 13.3076C15.0047 10.337 10.937 4.79999 7.15573 2.0696C3.52917 -0.549478 2.14844 -0.0983176 1.2375 0.323547C0.189063 0.809862 0 2.4563 0 3.42308C0 4.38985 0.521354 11.3682 0.859375 12.5342C1.97656 16.3837 5.96406 17.6844 9.63646 17.2626C9.82552 17.2333 10.0146 17.2098 10.2094 17.1805C10.0203 17.2098 9.83125 17.2391 9.63646 17.2626C4.25677 18.0829 -0.521354 20.0867 5.74635 27.2174C12.6385 34.518 15.188 25.653 16.5 21.1589C17.812 25.653 19.3188 34.1957 27.1333 27.2174C33 21.1589 28.7432 18.077 23.3635 17.2626C23.1745 17.2391 22.9797 17.2157 22.7906 17.1864C22.9854 17.2098 23.1745 17.2391 23.3635 17.2626C27.0359 17.6786 31.0177 16.3778 32.1406 12.5342C32.4786 11.3682 33 4.39571 33 3.42308C33 2.45044 32.8109 0.804003 31.7625 0.323547C30.8573 -0.0924583 29.4708 -0.549478 25.85 2.0696C22.063 4.79999 17.9953 10.337 16.5 13.3076Z" fill="white"/>
</svg>
