<svg width="27" height="31" viewBox="0 0 27 31" fill="none" xmlns="http://www.w3.org/2000/svg">
<path d="M23.1429 1.9375C25.2703 1.9375 27 3.6752 27 5.8125V25.1875C27 27.3248 25.2703 29.0625 23.1429 29.0625H3.85714C1.72969 29.0625 0 27.3248 0 25.1875V5.8125C0 3.6752 1.72969 1.9375 3.85714 1.9375H23.1429ZM9.64286 8.71875C8.8413 8.71875 8.19643 9.3666 8.19643 10.1719C8.19643 10.9771 8.8413 11.625 9.64286 11.625H15.3141L7.17188 19.7988C6.60536 20.368 6.60536 21.2883 7.17188 21.8514C7.73839 22.4145 8.65446 22.4205 9.21496 21.8514L17.3511 13.6775V19.8594C17.3511 20.6646 17.996 21.3125 18.7975 21.3125C19.5991 21.3125 20.244 20.6646 20.244 19.8594V10.1719C20.244 9.3666 19.5991 8.71875 18.7975 8.71875H9.64286Z" fill="white"/>
</svg>
