<svg width="36" height="31" viewBox="0 0 36 31" fill="none" xmlns="http://www.w3.org/2000/svg">
<path d="M13.9575 21.0377C13.9575 22.6297 13.14 25.2348 11.205 25.2348C9.27 25.2348 8.4525 22.6297 8.4525 21.0377C8.4525 19.4457 9.27 16.8406 11.205 16.8406C13.14 16.8406 13.9575 19.4457 13.9575 21.0377ZM36 17.191C36 19.6209 35.76 22.1955 34.6875 24.4273C31.845 30.2621 24.03 30.125 18.435 30.125C12.75 30.125 4.47 30.3307 1.515 24.4273C0.42 22.2184 0 19.6209 0 17.191C0 13.9994 1.0425 10.983 3.1125 8.53789C2.7225 7.33438 2.535 6.06992 2.535 4.8207C2.535 3.18301 2.9025 2.36035 3.63 0.875C7.0275 0.875 9.2025 1.56055 11.79 3.61719C13.965 3.0916 16.2 2.85547 18.4425 2.85547C20.4675 2.85547 22.5075 3.07637 24.4725 3.55625C27.0225 1.52246 29.1975 0.875 32.5575 0.875C33.2925 2.36035 33.6525 3.18301 33.6525 4.8207C33.6525 6.06992 33.4575 7.31152 33.075 8.49219C35.1375 10.9602 36 13.9994 36 17.191ZM31.1775 21.0377C31.1775 17.6938 29.175 14.7459 25.665 14.7459C24.2475 14.7459 22.89 15.0049 21.465 15.2029C20.3475 15.3781 19.23 15.4467 18.0825 15.4467C16.9425 15.4467 15.825 15.3781 14.7 15.2029C13.2975 15.0049 11.925 14.7459 10.5 14.7459C6.99 14.7459 4.9875 17.6938 4.9875 21.0377C4.9875 27.7256 11.0175 28.7539 16.2675 28.7539H19.8825C25.155 28.7539 31.1775 27.7332 31.1775 21.0377ZM24.9825 16.8406C23.0475 16.8406 22.23 19.4457 22.23 21.0377C22.23 22.6297 23.0475 25.2348 24.9825 25.2348C26.9175 25.2348 27.735 22.6297 27.735 21.0377C27.735 19.4457 26.9175 16.8406 24.9825 16.8406Z" fill="white"/>
</svg>
