<svg width="33" height="37" viewBox="0 0 33 37" fill="none" xmlns="http://www.w3.org/2000/svg">
<path d="M31.8951 12.9428C31.8951 5.91855 27.2029 3.85898 27.2029 3.85898C22.5991 1.78496 10.3641 1.80664 5.80446 3.85898C5.80446 3.85898 1.11227 5.91855 1.11227 12.9428C1.11227 21.3039 0.626114 31.6885 8.89085 33.8348C11.8741 34.608 14.4375 34.7742 16.5 34.6586C20.242 34.4562 22.3413 33.3506 22.3413 33.3506L22.2161 30.684C22.2161 30.684 19.5422 31.5078 16.5368 31.4139C13.5609 31.3127 10.423 31.0959 9.93683 27.5115C9.89154 27.1786 9.86939 26.8429 9.87053 26.507C16.1759 28.0174 21.5605 27.1646 23.0411 26.9912C27.1734 26.507 30.7754 24.0066 31.2321 21.723C31.954 18.1242 31.8951 12.9428 31.8951 12.9428ZM26.3632 21.9904H22.9306V13.7377C22.9306 10.1461 18.2163 10.0088 18.2163 14.2363V18.7529H14.8058V14.2363C14.8058 10.0088 10.0915 10.1461 10.0915 13.7377V21.9904H6.64419C6.64419 13.1668 6.26116 11.3023 7.99955 9.34394C9.90736 7.25547 13.8777 7.11816 15.6455 9.78476L16.5 11.1939L17.3545 9.78476C19.1297 7.10371 23.1074 7.26992 25.0004 9.34394C26.7462 11.3168 26.3558 13.174 26.3558 21.9904H26.3632Z" fill="white"/>
</svg>
