<svg width="43" height="29" viewBox="0 0 43 29" fill="none" xmlns="http://www.w3.org/2000/svg">
<rect x="0.606201" width="42.3938" height="28.4942" rx="5" fill="#54346F"/>
<path d="M24.9384 7.64302C24.9976 7.53781 24.9476 7.45233 24.827 7.45233L22.7141 7.45365C22.5935 7.45365 22.4445 7.53869 22.3835 7.64258L17.2064 16.4C16.4839 17.5901 15.4757 17.8532 14.5069 17.7357C12.8437 17.534 11.9494 16.3132 11.9494 14.6872C11.9494 13.0543 13.2781 11.7256 14.911 11.7256H18.1988C18.3194 11.7256 18.4671 11.6401 18.5267 11.5353L19.7117 9.46621C19.7717 9.36144 19.7217 9.27596 19.6012 9.27596H14.9106C11.927 9.27596 9.49933 11.7032 9.49933 14.6872C9.49933 16.129 10.0626 17.6839 11.0871 18.7001C12.0967 19.7013 13.4456 20.0683 14.8852 20.0981C15.6979 20.1073 17.9301 20.0889 18.9765 18.2271C20.1483 16.1417 24.9384 7.64302 24.9384 7.64302ZM32.6283 10.7156C31.6187 9.71433 30.2699 9.34742 28.8302 9.31761C28.0175 9.3084 25.7853 9.32681 24.7389 11.1886C23.5676 13.273 18.777 21.7718 18.777 21.7718C18.7179 21.877 18.7678 21.9625 18.8884 21.9625L21.0013 21.9611C21.1219 21.9611 21.2709 21.8761 21.3319 21.7722L26.5091 13.0148C27.2315 11.8247 28.2398 11.5616 29.2086 11.6791C30.8717 11.8808 31.766 13.1016 31.766 14.7276C31.766 16.3605 30.4373 17.6892 28.8044 17.6892H25.5166C25.396 17.6892 25.2483 17.7747 25.1887 17.8795L24.0038 19.9486C23.9437 20.0533 23.9937 20.1388 24.1142 20.1388H28.8048C31.7884 20.1388 34.2161 17.7116 34.2161 14.7276C34.2161 13.2866 33.6528 11.7317 32.6283 10.7156Z" fill="#F8F9FA"/>
</svg>
